<?xml version="1.0" encoding="UTF-8"?>
<svg xmlns="http://www.w3.org/2000/svg" xmlns:xlink="http://www.w3.org/1999/xlink" width="337px" height="365px" viewBox="0 0 337 365" version="1.1">
<defs>
<filter id="alpha" filterUnits="objectBoundingBox" x="0%" y="0%" width="100%" height="100%">
  <feColorMatrix type="matrix" in="SourceGraphic" values="0 0 0 0 1 0 0 0 0 1 0 0 0 0 1 0 0 0 1 0"/>
</filter>
<mask id="mask0">
  <g filter="url(#alpha)">
<rect x="0" y="0" width="337" height="365" style="fill:rgb(0%,0%,0%);fill-opacity:0.2;stroke:none;"/>
  </g>
</mask>
<clipPath id="clip1">
  <rect x="0" y="0" width="337" height="365"/>
</clipPath>
<g id="surface5" clip-path="url(#clip1)">
<path style=" stroke:none;fill-rule:nonzero;fill:rgb(42.352941%,38.823529%,100%);fill-opacity:1;" d="M 285.621094 131.25 L 305.070312 131.25 L 305.070312 143.773438 L 285.621094 143.773438 Z M 285.621094 131.25 "/>
</g>
<mask id="mask1">
  <g filter="url(#alpha)">
<rect x="0" y="0" width="337" height="365" style="fill:rgb(0%,0%,0%);fill-opacity:0.2;stroke:none;"/>
  </g>
</mask>
<clipPath id="clip2">
  <rect x="0" y="0" width="337" height="365"/>
</clipPath>
<g id="surface8" clip-path="url(#clip2)">
<path style=" stroke:none;fill-rule:nonzero;fill:rgb(42.352941%,38.823529%,100%);fill-opacity:1;" d="M 287.117188 146.554688 L 306.566406 146.554688 L 306.566406 159.078125 L 287.117188 159.078125 Z M 287.117188 146.554688 "/>
</g>
<mask id="mask2">
  <g filter="url(#alpha)">
<rect x="0" y="0" width="337" height="365" style="fill:rgb(0%,0%,0%);fill-opacity:0.2;stroke:none;"/>
  </g>
</mask>
<clipPath id="clip3">
  <rect x="0" y="0" width="337" height="365"/>
</clipPath>
<g id="surface11" clip-path="url(#clip3)">
<path style=" stroke:none;fill-rule:nonzero;fill:rgb(42.352941%,38.823529%,100%);fill-opacity:1;" d="M 271.03125 40.347656 L 290.480469 40.347656 L 290.480469 52.871094 L 271.03125 52.871094 Z M 271.03125 40.347656 "/>
</g>
<mask id="mask3">
  <g filter="url(#alpha)">
<rect x="0" y="0" width="337" height="365" style="fill:rgb(0%,0%,0%);fill-opacity:0.2;stroke:none;"/>
  </g>
</mask>
<clipPath id="clip4">
  <rect x="0" y="0" width="337" height="365"/>
</clipPath>
<g id="surface14" clip-path="url(#clip4)">
<path style=" stroke:none;fill-rule:nonzero;fill:rgb(42.352941%,38.823529%,100%);fill-opacity:1;" d="M 284.871094 54.726562 L 304.320312 54.726562 L 304.320312 67.25 L 284.871094 67.25 Z M 284.871094 54.726562 "/>
</g>
<mask id="mask4">
  <g filter="url(#alpha)">
<rect x="0" y="0" width="337" height="365" style="fill:rgb(0%,0%,0%);fill-opacity:0.2;stroke:none;"/>
  </g>
</mask>
<clipPath id="clip5">
  <rect x="0" y="0" width="337" height="365"/>
</clipPath>
<g id="surface17" clip-path="url(#clip5)">
<path style=" stroke:none;fill-rule:nonzero;fill:rgb(42.352941%,38.823529%,100%);fill-opacity:1;" d="M 247.46875 41.277344 L 266.917969 41.277344 L 266.917969 53.800781 L 247.46875 53.800781 Z M 247.46875 41.277344 "/>
</g>
<mask id="mask5">
  <g filter="url(#alpha)">
<rect x="0" y="0" width="337" height="365" style="fill:rgb(0%,0%,0%);fill-opacity:0.2;stroke:none;"/>
  </g>
</mask>
<clipPath id="clip6">
  <rect x="0" y="0" width="337" height="365"/>
</clipPath>
<g id="surface20" clip-path="url(#clip6)">
<path style=" stroke:none;fill-rule:nonzero;fill:rgb(42.352941%,38.823529%,100%);fill-opacity:1;" d="M 309.929688 69.105469 L 329.382812 69.105469 L 329.382812 81.625 L 309.929688 81.625 Z M 309.929688 69.105469 "/>
</g>
<mask id="mask6">
  <g filter="url(#alpha)">
<rect x="0" y="0" width="337" height="365" style="fill:rgb(0%,0%,0%);fill-opacity:0.2;stroke:none;"/>
  </g>
</mask>
<clipPath id="clip7">
  <rect x="0" y="0" width="337" height="365"/>
</clipPath>
<g id="surface23" clip-path="url(#clip7)">
<path style=" stroke:none;fill-rule:nonzero;fill:rgb(42.352941%,38.823529%,100%);fill-opacity:1;" d="M 286.367188 70.03125 L 305.816406 70.03125 L 305.816406 82.554688 L 286.367188 82.554688 Z M 286.367188 70.03125 "/>
</g>
<mask id="mask7">
  <g filter="url(#alpha)">
<rect x="0" y="0" width="337" height="365" style="fill:rgb(0%,0%,0%);fill-opacity:0.2;stroke:none;"/>
  </g>
</mask>
<clipPath id="clip8">
  <rect x="0" y="0" width="337" height="365"/>
</clipPath>
<g id="surface26" clip-path="url(#clip8)">
<path style=" stroke:none;fill-rule:nonzero;fill:rgb(42.352941%,38.823529%,100%);fill-opacity:1;" d="M 261.308594 55.65625 L 280.757812 55.65625 L 280.757812 68.175781 L 261.308594 68.175781 Z M 261.308594 55.65625 "/>
</g>
<mask id="mask8">
  <g filter="url(#alpha)">
<rect x="0" y="0" width="337" height="365" style="fill:rgb(0%,0%,0%);fill-opacity:0.2;stroke:none;"/>
  </g>
</mask>
<clipPath id="clip9">
  <rect x="0" y="0" width="337" height="365"/>
</clipPath>
<g id="surface29" clip-path="url(#clip9)">
<path style=" stroke:none;fill-rule:nonzero;fill:rgb(42.352941%,38.823529%,100%);fill-opacity:1;" d="M 308.808594 165.570312 L 328.257812 165.570312 L 328.257812 178.09375 L 308.808594 178.09375 Z M 308.808594 165.570312 "/>
</g>
<mask id="mask9">
  <g filter="url(#alpha)">
<rect x="0" y="0" width="337" height="365" style="fill:rgb(0%,0%,0%);fill-opacity:0.2;stroke:none;"/>
  </g>
</mask>
<clipPath id="clip10">
  <rect x="0" y="0" width="337" height="365"/>
</clipPath>
<g id="surface32" clip-path="url(#clip10)">
<path style=" stroke:none;fill-rule:nonzero;fill:rgb(42.352941%,38.823529%,100%);fill-opacity:1;" d="M 285.246094 166.5 L 304.695312 166.5 L 304.695312 179.023438 L 285.246094 179.023438 Z M 285.246094 166.5 "/>
</g>
<mask id="mask10">
  <g filter="url(#alpha)">
<rect x="0" y="0" width="337" height="365" style="fill:rgb(0%,0%,0%);fill-opacity:0.2;stroke:none;"/>
  </g>
</mask>
<clipPath id="clip11">
  <rect x="0" y="0" width="337" height="365"/>
</clipPath>
<g id="surface35" clip-path="url(#clip11)">
<path style=" stroke:none;fill-rule:nonzero;fill:rgb(96.078431%,96.078431%,96.078431%);fill-opacity:1;" d="M 0.078125 265.480469 C 0.078125 265.480469 31.359375 259.304688 34.207031 294.0625 C 37.058594 328.824219 94.359375 333.644531 94.359375 333.644531 C 94.359375 333.644531 93.984375 333.957031 93.285156 334.527344 C 45.976562 373.023438 0.75 359.058594 7.570312 307.925781 C 10.101562 288.914062 9.894531 269.820312 0.078125 265.480469 Z M 0.078125 265.480469 "/>
</g>
<mask id="mask11">
  <g filter="url(#alpha)">
<rect x="0" y="0" width="337" height="365" style="fill:rgb(0%,0%,0%);fill-opacity:0.2;stroke:none;"/>
  </g>
</mask>
<clipPath id="clip12">
  <rect x="0" y="0" width="337" height="365"/>
</clipPath>
<g id="surface38" clip-path="url(#clip12)">
<path style=" stroke:none;fill-rule:nonzero;fill:rgb(42.352941%,38.823529%,100%);fill-opacity:1;" d="M 0.234375 131.714844 L 19.683594 131.714844 L 19.683594 144.238281 L 0.234375 144.238281 Z M 0.234375 131.714844 "/>
</g>
<mask id="mask12">
  <g filter="url(#alpha)">
<rect x="0" y="0" width="337" height="365" style="fill:rgb(0%,0%,0%);fill-opacity:0.2;stroke:none;"/>
  </g>
</mask>
<clipPath id="clip13">
  <rect x="0" y="0" width="337" height="365"/>
</clipPath>
<g id="surface41" clip-path="url(#clip13)">
<path style=" stroke:none;fill-rule:nonzero;fill:rgb(42.352941%,38.823529%,100%);fill-opacity:1;" d="M 14.074219 146.09375 L 33.523438 146.09375 L 33.523438 158.613281 L 14.074219 158.613281 Z M 14.074219 146.09375 "/>
</g>
<mask id="mask13">
  <g filter="url(#alpha)">
<rect x="0" y="0" width="337" height="365" style="fill:rgb(0%,0%,0%);fill-opacity:0.2;stroke:none;"/>
  </g>
</mask>
<clipPath id="clip14">
  <rect x="0" y="0" width="337" height="365"/>
</clipPath>
<g id="surface44" clip-path="url(#clip14)">
<path style=" stroke:none;fill-rule:nonzero;fill:rgb(42.352941%,38.823529%,100%);fill-opacity:1;" d="M 119.175781 0 L 138.625 0 L 138.625 12.523438 L 119.175781 12.523438 Z M 119.175781 0 "/>
</g>
<mask id="mask14">
  <g filter="url(#alpha)">
<rect x="0" y="0" width="337" height="365" style="fill:rgb(0%,0%,0%);fill-opacity:0.2;stroke:none;"/>
  </g>
</mask>
<clipPath id="clip15">
  <rect x="0" y="0" width="337" height="365"/>
</clipPath>
<g id="surface47" clip-path="url(#clip15)">
<path style=" stroke:none;fill-rule:nonzero;fill:rgb(42.352941%,38.823529%,100%);fill-opacity:1;" d="M 272.527344 230.964844 L 291.976562 230.964844 L 291.976562 243.488281 L 272.527344 243.488281 Z M 272.527344 230.964844 "/>
</g>
<mask id="mask15">
  <g filter="url(#alpha)">
<rect x="0" y="0" width="337" height="365" style="fill:rgb(0%,0%,0%);fill-opacity:0.2;stroke:none;"/>
  </g>
</mask>
<clipPath id="clip16">
  <rect x="0" y="0" width="337" height="365"/>
</clipPath>
<g id="surface50" clip-path="url(#clip16)">
<path style=" stroke:none;fill-rule:nonzero;fill:rgb(42.352941%,38.823529%,100%);fill-opacity:1;" d="M 15.570312 161.398438 L 35.019531 161.398438 L 35.019531 173.921875 L 15.570312 173.921875 Z M 15.570312 161.398438 "/>
</g>
<mask id="mask16">
  <g filter="url(#alpha)">
<rect x="0" y="0" width="337" height="365" style="fill:rgb(0%,0%,0%);fill-opacity:0.2;stroke:none;"/>
  </g>
</mask>
<clipPath id="clip17">
  <rect x="0" y="0" width="337" height="365"/>
</clipPath>
<g id="surface53" clip-path="url(#clip17)">
<path style=" stroke:none;fill-rule:nonzero;fill:rgb(42.352941%,38.823529%,100%);fill-opacity:1;" d="M 133.015625 14.378906 L 152.464844 14.378906 L 152.464844 26.898438 L 133.015625 26.898438 Z M 133.015625 14.378906 "/>
</g>
<mask id="mask17">
  <g filter="url(#alpha)">
<rect x="0" y="0" width="337" height="365" style="fill:rgb(0%,0%,0%);fill-opacity:0.2;stroke:none;"/>
  </g>
</mask>
<clipPath id="clip18">
  <rect x="0" y="0" width="337" height="365"/>
</clipPath>
<g id="surface56" clip-path="url(#clip18)">
<path style=" stroke:none;fill-rule:nonzero;fill:rgb(42.352941%,38.823529%,100%);fill-opacity:1;" d="M 61.949219 99.25 L 81.398438 99.25 L 81.398438 111.773438 L 61.949219 111.773438 Z M 61.949219 99.25 "/>
</g>
<mask id="mask18">
  <g filter="url(#alpha)">
<rect x="0" y="0" width="337" height="365" style="fill:rgb(0%,0%,0%);fill-opacity:0.2;stroke:none;"/>
  </g>
</mask>
<clipPath id="clip19">
  <rect x="0" y="0" width="337" height="365"/>
</clipPath>
<g id="surface59" clip-path="url(#clip19)">
<path style=" stroke:none;fill-rule:nonzero;fill:rgb(42.352941%,38.823529%,100%);fill-opacity:1;" d="M 75.789062 113.628906 L 95.238281 113.628906 L 95.238281 126.148438 L 75.789062 126.148438 Z M 75.789062 113.628906 "/>
</g>
<mask id="mask19">
  <g filter="url(#alpha)">
<rect x="0" y="0" width="337" height="365" style="fill:rgb(0%,0%,0%);fill-opacity:0.2;stroke:none;"/>
  </g>
</mask>
<clipPath id="clip20">
  <rect x="0" y="0" width="337" height="365"/>
</clipPath>
<g id="surface62" clip-path="url(#clip20)">
<path style=" stroke:none;fill-rule:nonzero;fill:rgb(42.352941%,38.823529%,100%);fill-opacity:1;" d="M 112.816406 105.742188 L 132.269531 105.742188 L 132.269531 118.265625 L 112.816406 118.265625 Z M 112.816406 105.742188 "/>
</g>
<mask id="mask20">
  <g filter="url(#alpha)">
<rect x="0" y="0" width="337" height="365" style="fill:rgb(0%,0%,0%);fill-opacity:0.2;stroke:none;"/>
  </g>
</mask>
<clipPath id="clip21">
  <rect x="0" y="0" width="337" height="365"/>
</clipPath>
<g id="surface65" clip-path="url(#clip21)">
<path style=" stroke:none;fill-rule:nonzero;fill:rgb(42.352941%,38.823529%,100%);fill-opacity:1;" d="M 77.285156 128.933594 L 96.734375 128.933594 L 96.734375 141.453125 L 77.285156 141.453125 Z M 77.285156 128.933594 "/>
</g>
<mask id="mask21">
  <g filter="url(#alpha)">
<rect x="0" y="0" width="337" height="365" style="fill:rgb(0%,0%,0%);fill-opacity:0.2;stroke:none;"/>
  </g>
</mask>
<clipPath id="clip22">
  <rect x="0" y="0" width="337" height="365"/>
</clipPath>
<g id="surface68" clip-path="url(#clip22)">
<path style=" stroke:none;fill-rule:nonzero;fill:rgb(42.352941%,38.823529%,100%);fill-opacity:1;" d="M 298.710938 230.964844 L 318.160156 230.964844 L 318.160156 243.488281 L 298.710938 243.488281 Z M 298.710938 230.964844 "/>
</g>
<linearGradient id="linear0" gradientUnits="userSpaceOnUse" x1="611.05" y1="646" x2="611.05" y2="103.5" gradientTransform="matrix(0.374029,0,0,0.463787,-55.887392,-26.203939)">
<stop offset="0" style="stop-color:rgb(50.196078%,50.196078%,50.196078%);stop-opacity:0.25098;"/>
<stop offset="0.54" style="stop-color:rgb(50.196078%,50.196078%,50.196078%);stop-opacity:0.121569;"/>
<stop offset="1" style="stop-color:rgb(50.196078%,50.196078%,50.196078%);stop-opacity:0.101961;"/>
</linearGradient>
<mask id="mask22">
  <g filter="url(#alpha)">
<rect x="0" y="0" width="337" height="365" style="fill:rgb(0%,0%,0%);fill-opacity:0.101961;stroke:none;"/>
  </g>
</mask>
<clipPath id="clip23">
  <rect x="0" y="0" width="337" height="365"/>
</clipPath>
<g id="surface71" clip-path="url(#clip23)">
<path style=" stroke:none;fill-rule:nonzero;fill:rgb(0%,0%,0%);fill-opacity:1;" d="M 170.027344 122.292969 L 132.171875 132.214844 C 132.171875 132.214844 117.742188 132.953125 108.449219 156.726562 C 99.160156 180.5 78.996094 248.398438 78.996094 248.398438 C 78.996094 248.398438 96.199219 226.828125 116.355469 249.871094 L 129.800781 219.722656 L 126.832031 267.519531 L 230.992188 267.519531 L 230.992188 244.96875 C 230.992188 244.96875 252.734375 259.429688 251.15625 267.515625 C 251.15625 267.515625 269.765625 208.070312 265.742188 181.054688 C 264.535156 172.703125 263.792969 164.253906 263.523438 155.777344 C 263.035156 141.46875 255.339844 129.085938 244.304688 124.855469 C 242.34375 124.109375 240.191406 123.410156 237.796875 122.78125 C 215.460938 116.902344 209.746094 122.78125 209.746094 122.78125 C 209.746094 122.78125 205.417969 140.238281 205.496094 148.152344 C 205.59375 158.324219 193.832031 165.066406 193.832031 165.066406 C 193.832031 165.066406 176.4375 159.917969 175.648438 155.753906 C 174.859375 151.589844 168.632812 127.195312 170.027344 122.292969 Z M 170.027344 122.292969 "/>
</g>
<mask id="mask23">
  <g filter="url(#alpha)">
<rect x="0" y="0" width="337" height="365" style="fill:rgb(0%,0%,0%);fill-opacity:0.101961;stroke:none;"/>
  </g>
</mask>
<clipPath id="clip24">
  <rect x="0" y="0" width="337" height="365"/>
</clipPath>
<g id="surface74" clip-path="url(#clip24)">
<path style=" stroke:none;fill-rule:nonzero;fill:rgb(0%,0%,0%);fill-opacity:1;" d="M 208.707031 119.230469 C 207.117188 113.648438 206.761719 107.640625 207.675781 101.828125 L 168.53125 110.40625 C 168.53125 110.40625 169.09375 114.074219 169.734375 119.570312 C 174.847656 126.144531 181.910156 129.832031 189.277344 129.769531 C 196.640625 129.703125 203.664062 125.894531 208.699219 119.230469 Z M 208.707031 119.230469 "/>
</g>
<mask id="mask24">
  <g filter="url(#alpha)">
<rect x="0" y="0" width="337" height="365" style="fill:rgb(0%,0%,0%);fill-opacity:0.101961;stroke:none;"/>
  </g>
</mask>
<clipPath id="clip25">
  <rect x="0" y="0" width="337" height="365"/>
</clipPath>
<g id="surface77" clip-path="url(#clip25)">
<path style=" stroke:none;fill-rule:nonzero;fill:rgb(0%,0%,0%);fill-opacity:1;" d="M 179.136719 63.738281 L 179.175781 63.710938 C 178.324219 64.101562 177.496094 64.539062 176.691406 65.027344 C 167.464844 70.625 161.617188 82.25 161.621094 94.984375 C 161.621094 95.253906 161.621094 95.519531 161.621094 95.789062 C 162.457031 95.761719 163.277344 95.515625 164.035156 95.070312 C 170.585938 91.277344 174.507812 79.675781 176.0625 71.582031 C 176.625 68.683594 177.152344 65.417969 179.136719 63.738281 Z M 179.136719 63.738281 "/>
<path style=" stroke:none;fill-rule:nonzero;fill:rgb(0%,0%,0%);fill-opacity:1;" d="M 199.710938 64.671875 C 197.585938 63.457031 195.335938 62.597656 193.027344 62.113281 C 194.921875 62.65625 196.613281 63.972656 197.828125 65.851562 C 198.421875 66.855469 198.917969 67.945312 199.296875 69.097656 C 192.058594 65.175781 183.792969 65.386719 176.6875 69.679688 C 178.375 74.265625 183.605469 76.765625 187.101562 78.441406 C 190.925781 80.269531 194.789062 81.945312 198.695312 83.464844 L 195.238281 79.984375 L 203.046875 81.523438 C 203.128906 79.597656 202.945312 77.667969 202.5 75.820312 C 203.996094 77.3125 205.976562 77.8125 207.601562 79.066406 C 210.640625 81.445312 211.910156 86.023438 213.566406 89.988281 C 214.003906 91.035156 214.519531 92.109375 215.308594 92.769531 C 214.660156 80.566406 208.675781 69.78125 199.710938 64.671875 Z M 199.710938 64.671875 "/>
</g>
<mask id="mask25">
  <g filter="url(#alpha)">
<rect x="0" y="0" width="337" height="365" style="fill:rgb(0%,0%,0%);fill-opacity:0.101961;stroke:none;"/>
  </g>
</mask>
<clipPath id="clip26">
  <rect x="0" y="0" width="337" height="365"/>
</clipPath>
<g id="surface80" clip-path="url(#clip26)">
<path style=" stroke:none;fill-rule:nonzero;fill:rgb(0%,0%,0%);fill-opacity:1;" d="M 158.554688 88.730469 C 158.554688 88.730469 186.234375 46.0625 218.253906 88.730469 L 215.484375 79.171875 C 215.484375 79.171875 200.460938 51.96875 189.789062 57.839844 C 179.117188 63.710938 168.636719 67.890625 168.636719 67.890625 Z M 158.554688 88.730469 "/>
</g>
<mask id="mask26">
  <g filter="url(#alpha)">
<rect x="0" y="0" width="337" height="365" style="fill:rgb(0%,0%,0%);fill-opacity:0.101961;stroke:none;"/>
  </g>
</mask>
<clipPath id="clip27">
  <rect x="0" y="0" width="337" height="365"/>
</clipPath>
<g id="surface83" clip-path="url(#clip27)">
<path style=" stroke:none;fill-rule:nonzero;fill:rgb(0%,0%,0%);fill-opacity:1;" d="M 135.820312 179.894531 C 135.820312 179.894531 129.894531 199.503906 138.191406 217.148438 C 146.492188 234.796875 130.878906 242.152344 130.878906 242.152344 "/>
</g>
<mask id="mask27">
  <g filter="url(#alpha)">
<rect x="0" y="0" width="337" height="365" style="fill:rgb(0%,0%,0%);fill-opacity:0.101961;stroke:none;"/>
  </g>
</mask>
<clipPath id="clip28">
  <rect x="0" y="0" width="337" height="365"/>
</clipPath>
<g id="surface86" clip-path="url(#clip28)">
<path style=" stroke:none;fill-rule:nonzero;fill:rgb(0%,0%,0%);fill-opacity:1;" d="M 231.890625 162.246094 C 231.890625 162.246094 242.167969 178.421875 235.449219 192.882812 C 228.726562 207.34375 229.121094 242.152344 229.121094 242.152344 "/>
</g>
<mask id="mask28">
  <g filter="url(#alpha)">
<rect x="0" y="0" width="337" height="365" style="fill:rgb(0%,0%,0%);fill-opacity:0.101961;stroke:none;"/>
  </g>
</mask>
<clipPath id="clip29">
  <rect x="0" y="0" width="337" height="365"/>
</clipPath>
<g id="surface89" clip-path="url(#clip29)">
<path style="fill:none;stroke-width:1;stroke-linecap:butt;stroke-linejoin:miter;stroke:rgb(0%,0%,0%);stroke-opacity:1;stroke-miterlimit:10;" d="M 577.560011 204.702611 C 577.560011 204.702611 650.279584 132.016289 728.711868 203.371854 " transform="matrix(0.374029,0,0,0.463787,-55.887392,-26.203939)"/>
</g>
<mask id="mask29">
  <g filter="url(#alpha)">
<rect x="0" y="0" width="337" height="365" style="fill:rgb(0%,0%,0%);fill-opacity:0.101961;stroke:none;"/>
  </g>
</mask>
<clipPath id="clip30">
  <rect x="0" y="0" width="337" height="365"/>
</clipPath>
<g id="surface92" clip-path="url(#clip30)">
<path style=" stroke:none;fill-rule:nonzero;fill:rgb(0%,0%,0%);fill-opacity:1;" d="M 27.78125 275.027344 L 317.546875 275.027344 L 317.546875 287.546875 L 27.78125 287.546875 Z M 27.78125 275.027344 "/>
</g>
</defs>
<g id="surface1">
<use xlink:href="#surface5" mask="url(#mask0)"/>
<use xlink:href="#surface8" mask="url(#mask1)"/>
<use xlink:href="#surface11" mask="url(#mask2)"/>
<use xlink:href="#surface14" mask="url(#mask3)"/>
<use xlink:href="#surface17" mask="url(#mask4)"/>
<use xlink:href="#surface20" mask="url(#mask5)"/>
<use xlink:href="#surface23" mask="url(#mask6)"/>
<use xlink:href="#surface26" mask="url(#mask7)"/>
<use xlink:href="#surface29" mask="url(#mask8)"/>
<use xlink:href="#surface32" mask="url(#mask9)"/>
<path style=" stroke:none;fill-rule:nonzero;fill:rgb(42.352941%,38.823529%,100%);fill-opacity:1;" d="M 48.902344 128.003906 C 48.902344 128.003906 76.316406 161.996094 60.84375 212.414062 C 45.371094 262.832031 87.367188 346.746094 87.367188 346.746094 C 87.367188 346.746094 86.917969 346.660156 86.082031 346.480469 C 29.785156 334.15625 1.808594 254.316406 33.132812 195.023438 C 44.757812 172.949219 54.308594 147.085938 48.902344 128.003906 Z M 48.902344 128.003906 "/>
<path style="fill:none;stroke-width:2;stroke-linecap:butt;stroke-linejoin:miter;stroke:rgb(32.54902%,32.941176%,38.039216%);stroke-opacity:1;stroke-miterlimit:10;" d="M 280.164842 332.497464 C 280.164842 332.497464 321.542832 422.340454 280.164842 495.616353 C 238.797295 568.900674 273.084005 774.620655 383.014527 804.141577 " transform="matrix(0.374029,0,0,0.463787,-55.887392,-26.203939)"/>
<path style=" stroke:none;fill-rule:nonzero;fill:rgb(42.352941%,38.823529%,100%);fill-opacity:1;" d="M 0.078125 265.480469 C 0.078125 265.480469 31.359375 259.304688 34.207031 294.0625 C 37.058594 328.824219 94.359375 333.644531 94.359375 333.644531 C 94.359375 333.644531 93.984375 333.957031 93.285156 334.527344 C 45.976562 373.023438 0.75 359.058594 7.570312 307.925781 C 10.101562 288.914062 9.894531 269.820312 0.078125 265.480469 Z M 0.078125 265.480469 "/>
<use xlink:href="#surface35" mask="url(#mask10)"/>
<path style="fill:none;stroke-width:2;stroke-linecap:butt;stroke-linejoin:miter;stroke:rgb(32.54902%,32.941176%,38.039216%);stroke-opacity:1;stroke-miterlimit:10;" d="M 149.628874 628.919531 C 149.628874 628.919531 214.53655 643.17043 209.210256 702.187008 C 203.883963 761.212008 305.605727 832.003264 401.698329 775.892455 " transform="matrix(0.374029,0,0,0.463787,-55.887392,-26.203939)"/>
<use xlink:href="#surface38" mask="url(#mask11)"/>
<use xlink:href="#surface41" mask="url(#mask12)"/>
<use xlink:href="#surface44" mask="url(#mask13)"/>
<use xlink:href="#surface47" mask="url(#mask14)"/>
<use xlink:href="#surface50" mask="url(#mask15)"/>
<use xlink:href="#surface53" mask="url(#mask16)"/>
<use xlink:href="#surface56" mask="url(#mask17)"/>
<use xlink:href="#surface59" mask="url(#mask18)"/>
<use xlink:href="#surface62" mask="url(#mask19)"/>
<use xlink:href="#surface65" mask="url(#mask20)"/>
<use xlink:href="#surface68" mask="url(#mask21)"/>
<path style=" stroke:none;fill-rule:nonzero;fill:url(#linear0);" d="M 269.542969 181.390625 C 268.285156 172.699219 267.511719 163.914062 267.230469 155.089844 C 266.722656 140.203125 258.71875 127.320312 247.238281 122.914062 C 245.195312 122.132812 242.945312 121.40625 240.464844 120.75 C 218.695312 115.019531 212.082031 120.023438 211.328125 120.683594 C 210.695312 119.246094 210.140625 117.757812 209.671875 116.226562 C 209.636719 116.066406 209.601562 115.910156 209.566406 115.761719 C 213.871094 110.0625 216.496094 102.726562 217.011719 94.941406 C 220.644531 90.378906 222.765625 84.867188 222.765625 78.9375 C 222.765625 73.835938 221.191406 69.046875 218.445312 64.90625 L 218.445312 56.847656 C 218.445312 37.488281 205.789062 21.796875 190.179688 21.796875 L 187.886719 21.796875 C 172.273438 21.796875 159.621094 37.488281 159.621094 56.847656 L 159.621094 65.53125 C 157.125 69.527344 155.710938 74.085938 155.710938 78.925781 C 155.710938 84.734375 157.746094 90.132812 161.238281 94.640625 C 161.71875 102.710938 164.460938 110.316406 168.996094 116.132812 C 169.152344 117.449219 169.308594 118.863281 169.460938 120.355469 L 130.523438 130.554688 C 130.523438 130.554688 115.511719 131.320312 105.839844 156.0625 C 97.660156 177.023438 81.382812 230.867188 76.558594 246.898438 C 75.6875 249.800781 75.195312 251.464844 75.195312 251.464844 C 75.195312 251.464844 75.355469 251.265625 75.660156 250.921875 L 75.195312 252.484375 C 75.195312 252.484375 75.429688 252.1875 75.878906 251.703125 C 75.199219 258.40625 75.101562 269.921875 82.183594 271.355469 C 88.125 272.558594 103.429688 273.054688 114.992188 273.253906 L 115.792969 273.253906 C 123.457031 273.378906 129.285156 273.378906 129.285156 273.378906 L 129.285156 273.253906 L 253.628906 273.253906 L 253.628906 271.671875 C 253.628906 270.238281 253.398438 268.816406 252.945312 267.5 L 253.117188 267.238281 C 253.78125 268.328125 254.226562 269.601562 254.40625 270.949219 C 254.394531 271.078125 254.371094 271.210938 254.347656 271.339844 L 254.421875 271.101562 C 254.449219 271.523438 254.425781 271.949219 254.347656 272.359375 C 254.347656 272.359375 270.300781 221.394531 270.128906 190.960938 C 270.171875 187.753906 269.976562 184.550781 269.542969 181.390625 Z M 170.109375 127.246094 C 169.902344 125.789062 169.769531 124.320312 169.710938 122.847656 C 169.710938 122.847656 169.710938 122.820312 169.710938 122.804688 C 169.851562 124.238281 169.984375 125.722656 170.109375 127.246094 Z M 121.777344 236.714844 L 121.777344 248.863281 L 115.640625 250.492188 Z M 121.777344 236.714844 "/>
<path style=" stroke:none;fill-rule:nonzero;fill:rgb(88.235294%,29.411765%,35.294118%);fill-opacity:1;" d="M 188.402344 26.699219 C 204.011719 26.699219 216.667969 42.390625 216.667969 61.75 L 216.667969 76.699219 L 160.136719 76.699219 L 160.136719 61.75 C 160.136719 42.390625 172.792969 26.699219 188.402344 26.699219 Z M 188.402344 26.699219 "/>
<path style=" stroke:none;fill-rule:nonzero;fill:rgb(88.235294%,29.411765%,35.294118%);fill-opacity:1;" d="M 220.820312 81.601562 C 220.820312 66.441406 206.394531 54.152344 188.601562 54.152344 C 170.804688 54.152344 156.382812 66.441406 156.382812 81.601562 C 156.382812 96.765625 170.804688 109.054688 188.601562 109.054688 C 206.394531 109.054688 220.820312 96.765625 220.820312 81.601562 Z M 220.820312 81.601562 "/>
<path style=" stroke:none;fill-rule:nonzero;fill:rgb(96.862745%,76.862745%,65.490196%);fill-opacity:1;" d="M 167.945312 108.195312 C 167.945312 108.195312 174.679688 151.824219 167.945312 163.589844 C 161.214844 175.359375 188.519531 180.015625 188.519531 180.015625 L 216.78125 167.269531 L 220.734375 135.894531 C 220.734375 135.894531 203.527344 123.882812 207.09375 99.617188 Z M 167.945312 108.195312 "/>
<path style=" stroke:none;fill-rule:nonzero;fill:rgb(96.862745%,76.862745%,65.490196%);fill-opacity:1;" d="M 251.363281 255.261719 C 251.363281 255.261719 253.144531 264.820312 243.457031 266.539062 C 237.734375 267.582031 231.917969 267.496094 226.21875 266.28125 L 224.085938 242.273438 L 246.621094 242.273438 Z M 251.363281 255.261719 "/>
<path style=" stroke:none;fill-rule:nonzero;fill:rgb(96.862745%,76.862745%,65.490196%);fill-opacity:1;" d="M 80.304688 243.027344 C 80.304688 243.027344 76.023438 264.589844 85.710938 266.539062 C 95.398438 268.484375 130.96875 268.5 130.96875 268.5 L 130.96875 242.992188 L 114.863281 247.257812 L 99.746094 229.28125 Z M 80.304688 243.027344 "/>
<use xlink:href="#surface71" mask="url(#mask22)"/>
<path style=" stroke:none;fill-rule:nonzero;fill:rgb(34.117647%,34.901961%,53.333333%);fill-opacity:1;" d="M 170.027344 121.3125 L 132.171875 131.238281 C 132.171875 131.238281 117.742188 131.976562 108.449219 155.75 C 99.160156 179.523438 78.992188 247.429688 78.992188 247.429688 C 78.992188 247.429688 96.195312 225.859375 116.351562 248.898438 L 129.796875 218.753906 L 126.828125 266.539062 L 230.992188 266.539062 L 230.992188 243.988281 C 230.992188 243.988281 252.734375 258.449219 251.15625 266.539062 C 251.15625 266.539062 269.765625 207.089844 265.742188 180.074219 C 264.535156 171.722656 263.792969 163.277344 263.523438 154.796875 C 263.035156 140.488281 255.339844 128.105469 244.304688 123.878906 C 242.34375 123.128906 240.191406 122.429688 237.796875 121.804688 C 215.460938 115.921875 209.746094 121.804688 209.746094 121.804688 C 209.746094 121.804688 205.417969 139.261719 205.496094 147.171875 C 205.59375 157.34375 193.832031 164.085938 193.832031 164.085938 C 193.832031 164.085938 176.4375 158.941406 175.648438 154.773438 C 174.859375 150.609375 168.632812 126.214844 170.027344 121.3125 Z M 170.027344 121.3125 "/>
<use xlink:href="#surface74" mask="url(#mask23)"/>
<path style=" stroke:none;fill-rule:nonzero;fill:rgb(96.862745%,76.862745%,65.490196%);fill-opacity:1;" d="M 215.382812 94.226562 C 215.320312 112.425781 203.5 127.195312 188.824219 127.417969 C 174.148438 127.636719 162.042969 113.226562 161.625 95.035156 C 161.625 94.765625 161.625 94.496094 161.625 94.226562 C 161.621094 81.492188 167.46875 69.867188 176.695312 64.273438 C 177.5 63.78125 178.328125 63.34375 179.179688 62.953125 C 183.601562 60.9375 188.371094 60.386719 193.019531 61.359375 C 205.277344 63.945312 214.5 76.628906 215.3125 92.015625 C 215.359375 92.746094 215.382812 93.484375 215.382812 94.226562 Z M 215.382812 94.226562 "/>
<use xlink:href="#surface77" mask="url(#mask24)"/>
<path style=" stroke:none;fill-rule:nonzero;fill:rgb(38.823529%,14.901961%,32.156863%);fill-opacity:1;" d="M 179.136719 62.980469 L 179.175781 62.953125 C 178.324219 63.34375 177.496094 63.78125 176.691406 64.273438 C 167.464844 69.867188 161.617188 81.492188 161.621094 94.226562 C 161.621094 94.496094 161.621094 94.765625 161.621094 95.035156 C 162.457031 95.007812 163.277344 94.761719 164.035156 94.316406 C 170.585938 90.523438 174.507812 78.917969 176.0625 70.824219 C 176.625 67.945312 177.152344 64.664062 179.136719 62.980469 Z M 179.136719 62.980469 "/>
<path style=" stroke:none;fill-rule:nonzero;fill:rgb(38.823529%,14.901961%,32.156863%);fill-opacity:1;" d="M 199.710938 63.917969 C 197.585938 62.707031 195.335938 61.847656 193.027344 61.363281 C 194.921875 61.902344 196.613281 63.222656 197.828125 65.101562 C 198.421875 66.105469 198.917969 67.195312 199.296875 68.347656 C 192.058594 64.421875 183.792969 64.632812 176.6875 68.929688 C 178.375 73.515625 183.605469 76.015625 187.101562 77.6875 C 190.925781 79.519531 194.789062 81.195312 198.695312 82.710938 L 195.238281 79.234375 L 203.046875 80.773438 C 203.128906 78.847656 202.945312 76.917969 202.5 75.070312 C 203.996094 76.5625 205.976562 77.0625 207.601562 78.316406 C 210.640625 80.695312 211.910156 85.273438 213.566406 89.238281 C 214.003906 90.285156 214.519531 91.355469 215.308594 92.019531 C 214.660156 79.816406 208.675781 69.03125 199.710938 63.917969 Z M 199.710938 63.917969 "/>
<use xlink:href="#surface80" mask="url(#mask25)"/>
<path style=" stroke:none;fill-rule:nonzero;fill:rgb(88.235294%,29.411765%,35.294118%);fill-opacity:1;" d="M 158.554688 87.976562 C 158.554688 87.976562 186.234375 45.308594 218.253906 87.976562 L 215.484375 78.417969 C 215.484375 78.417969 200.460938 51.210938 189.789062 57.082031 C 179.117188 62.953125 168.636719 67.132812 168.636719 67.132812 Z M 158.554688 87.976562 "/>
<use xlink:href="#surface83" mask="url(#mask26)"/>
<use xlink:href="#surface86" mask="url(#mask27)"/>
<path style=" stroke:none;fill-rule:nonzero;fill:rgb(32.54902%,32.941176%,38.039216%);fill-opacity:1;" d="M 126.726562 256.613281 L 240.984375 256.613281 C 246.222656 256.613281 250.472656 261.882812 250.472656 268.378906 L 117.242188 268.378906 C 117.242188 261.882812 121.488281 256.617188 126.726562 256.613281 Z M 126.726562 256.613281 "/>
<path style=" stroke:none;fill-rule:nonzero;fill:rgb(32.54902%,32.941176%,38.039216%);fill-opacity:1;" d="M 138.351562 175.722656 L 229.363281 175.722656 C 237.417969 175.722656 243.949219 183.820312 243.949219 193.8125 L 243.949219 259.308594 L 123.765625 259.308594 L 123.765625 193.8125 C 123.765625 183.820312 130.296875 175.722656 138.351562 175.722656 Z M 138.351562 175.722656 "/>
<path style=" stroke:none;fill-rule:nonzero;fill:rgb(100%,100%,100%);fill-opacity:1;" d="M 190.875 221.195312 C 190.875 226.066406 187.6875 230.019531 183.757812 230.019531 C 179.824219 230.019531 176.640625 226.066406 176.640625 221.195312 C 176.640625 216.320312 179.824219 212.367188 183.757812 212.367188 C 187.6875 212.367188 190.875 216.320312 190.875 221.195312 Z M 190.875 221.195312 "/>
<use xlink:href="#surface89" mask="url(#mask28)"/>
<path style=" stroke:none;fill-rule:nonzero;fill:rgb(41.568627%,36.078431%,60%);fill-opacity:1;" d="M 220.8125 66.585938 L 223.542969 66.585938 L 223.542969 85.78125 L 220.8125 85.78125 Z M 220.8125 66.585938 "/>
<path style=" stroke:none;fill-rule:nonzero;fill:rgb(100%,81.568627%,21.568627%);fill-opacity:1;" d="M 217.167969 79.007812 C 222.367188 79.007812 226.578125 84.230469 226.578125 90.675781 L 226.578125 91.425781 C 226.578125 97.871094 222.367188 103.09375 217.167969 103.09375 Z M 217.167969 79.007812 "/>
<path style=" stroke:none;fill-rule:nonzero;fill:rgb(41.568627%,36.078431%,60%);fill-opacity:1;" d="M 217.472656 77.878906 C 218.644531 77.878906 219.597656 79.058594 219.597656 80.511719 L 219.597656 101.59375 C 219.597656 103.046875 218.644531 104.226562 217.472656 104.226562 C 216.296875 104.226562 215.347656 103.046875 215.347656 101.59375 L 215.347656 80.511719 C 215.347656 79.058594 216.296875 77.878906 217.472656 77.878906 Z M 217.472656 77.878906 "/>
<path style=" stroke:none;fill-rule:nonzero;fill:rgb(41.568627%,36.078431%,60%);fill-opacity:1;" d="M 155.714844 86.15625 L 152.984375 86.15625 L 152.984375 66.960938 L 155.714844 66.960938 Z M 155.714844 86.15625 "/>
<path style=" stroke:none;fill-rule:nonzero;fill:rgb(100%,81.568627%,21.568627%);fill-opacity:1;" d="M 159.359375 103.472656 C 154.160156 103.472656 149.949219 98.246094 149.949219 91.800781 L 149.949219 91.050781 C 149.949219 84.605469 154.160156 79.382812 159.359375 79.382812 Z M 159.359375 103.472656 "/>
<path style=" stroke:none;fill-rule:nonzero;fill:rgb(41.568627%,36.078431%,60%);fill-opacity:1;" d="M 159.054688 104.597656 C 157.882812 104.597656 156.929688 103.417969 156.929688 101.964844 L 156.929688 80.882812 C 156.929688 79.429688 157.882812 78.25 159.054688 78.25 C 160.230469 78.25 161.179688 79.429688 161.179688 80.882812 L 161.179688 101.964844 C 161.179688 103.417969 160.230469 104.597656 159.054688 104.597656 Z M 159.054688 104.597656 "/>
<path style=" stroke:none;fill-rule:nonzero;fill:rgb(100%,81.568627%,21.568627%);fill-opacity:1;" d="M 220.488281 46.066406 C 216.789062 36.53125 208.734375 25.003906 191.367188 24.078125 L 191.367188 24.050781 L 191.160156 24.050781 L 185.007812 24.414062 L 185.007812 24.449219 C 167.753906 25.433594 159.738281 36.921875 156.046875 46.425781 C 153.59375 52.867188 152.289062 59.890625 152.226562 67.015625 L 156.476562 66.890625 C 156.566406 60.546875 157.742188 54.300781 159.925781 48.5625 C 164.609375 36.632812 173.226562 30.292969 185.535156 29.707031 L 190.980469 29.328125 C 203.296875 29.914062 211.917969 36.261719 216.597656 48.1875 C 218.785156 53.925781 219.964844 60.179688 220.054688 66.527344 L 222.179688 66.585938 L 224.304688 66.652344 C 224.242188 59.527344 222.941406 52.507812 220.488281 46.066406 Z M 220.488281 46.066406 "/>
<path style=" stroke:none;fill-rule:nonzero;fill:rgb(83.921569%,83.921569%,89.019608%);fill-opacity:1;" d="M 27.78125 268.53125 L 317.546875 268.53125 L 317.546875 365 L 27.78125 365 Z M 27.78125 268.53125 "/>
<use xlink:href="#surface92" mask="url(#mask29)"/>
<path style=" stroke:none;fill-rule:nonzero;fill:rgb(83.921569%,83.921569%,89.019608%);fill-opacity:1;" d="M 8.34375 267.140625 L 336.976562 267.140625 L 336.976562 279.664062 L 8.34375 279.664062 Z M 8.34375 267.140625 "/>
</g>
</svg>
